<svg xmlns="http://www.w3.org/2000/svg" xmlns:xlink="http://www.w3.org/1999/xlink" width="224.87999" zoomAndPan="magnify" viewBox="0 0 224.87999 30.000001" height="30.000001" preserveAspectRatio="xMidYMid meet" version="1.0"><defs><g><g id="id1"/><g id="id2"/><g id="id3"/></g><clipPath id="id4"><path d="M 3.570312 0 L 221.195312 0 L 221.195312 29.03125 L 3.570312 29.03125 Z M 3.570312 0 " clip-rule="nonzero"/></clipPath></defs><g clip-path="url(#id4)"><path fill="rgb(100%, 100%, 100%)" d="M 3.570312 0 L 221.3125 0 L 221.3125 36.289062 L 3.570312 36.289062 Z M 3.570312 0 " fill-opacity="1" fill-rule="nonzero"/><path fill="rgb(100%, 100%, 100%)" d="M 3.570312 0 L 221.3125 0 L 221.3125 29.03125 L 3.570312 29.03125 Z M 3.570312 0 " fill-opacity="1" fill-rule="nonzero"/><path fill="rgb(100%, 100%, 100%)" d="M 3.570312 0 L 221.3125 0 L 221.3125 29.03125 L 3.570312 29.03125 Z M 3.570312 0 " fill-opacity="1" fill-rule="nonzero"/></g><g fill="rgb(11.369324%, 17.649841%, 60.778809%)" fill-opacity="1"><g transform="translate(8.389633, 2.902992)"><g><path d="M 0 16.125 L 6.515625 16.125 C 7.316406 16.125 7.921875 16.007812 8.328125 15.78125 C 8.734375 15.5625 8.9375 15.210938 8.9375 14.734375 C 8.9375 14.109375 8.664062 13.644531 8.125 13.34375 C 7.582031 13.050781 6.734375 12.90625 5.578125 12.90625 L 0 12.90625 L 0 8.765625 L 6.515625 8.765625 C 7.316406 8.765625 7.921875 8.65625 8.328125 8.4375 C 8.734375 8.226562 8.9375 7.890625 8.9375 7.421875 C 8.9375 6.773438 8.644531 6.300781 8.0625 6 C 7.488281 5.707031 6.546875 5.5625 5.234375 5.5625 L 0 5.5625 L 0 1.421875 L 11.96875 1.421875 L 11.96875 4.546875 L 10.5 5.0625 L 10.5 5.296875 C 11.039062 5.617188 11.457031 6.082031 11.75 6.6875 C 12.039062 7.289062 12.1875 7.972656 12.1875 8.734375 C 12.1875 10.460938 11.660156 11.675781 10.609375 12.375 L 10.609375 12.703125 C 11.097656 13.035156 11.484375 13.503906 11.765625 14.109375 C 12.046875 14.710938 12.1875 15.378906 12.1875 16.109375 C 12.1875 17.523438 11.820312 18.566406 11.09375 19.234375 C 10.363281 19.910156 9.257812 20.25 7.78125 20.25 L 0 20.25 Z M 0 16.125 "/></g></g></g><g fill="rgb(11.369324%, 17.649841%, 60.778809%)" fill-opacity="1"><g transform="translate(33.41049, 24.552733)"><g><path d="M 0 -16.125 L -6.515625 -16.125 C -7.316406 -16.125 -7.921875 -16.007812 -8.328125 -15.78125 C -8.734375 -15.5625 -8.9375 -15.210938 -8.9375 -14.734375 C -8.9375 -14.109375 -8.664062 -13.644531 -8.125 -13.34375 C -7.582031 -13.050781 -6.734375 -12.90625 -5.578125 -12.90625 L 0 -12.90625 L 0 -8.765625 L -6.515625 -8.765625 C -7.316406 -8.765625 -7.921875 -8.65625 -8.328125 -8.4375 C -8.734375 -8.226562 -8.9375 -7.890625 -8.9375 -7.421875 C -8.9375 -6.773438 -8.644531 -6.300781 -8.0625 -6 C -7.488281 -5.707031 -6.546875 -5.5625 -5.234375 -5.5625 L 0 -5.5625 L 0 -1.421875 L -11.96875 -1.421875 L -11.96875 -4.546875 L -10.5 -5.0625 L -10.5 -5.296875 C -11.039062 -5.617188 -11.457031 -6.082031 -11.75 -6.6875 C -12.039062 -7.289062 -12.1875 -7.972656 -12.1875 -8.734375 C -12.1875 -10.460938 -11.660156 -11.675781 -10.609375 -12.375 L -10.609375 -12.703125 C -11.097656 -13.035156 -11.484375 -13.503906 -11.765625 -14.109375 C -12.046875 -14.710938 -12.1875 -15.378906 -12.1875 -16.109375 C -12.1875 -17.523438 -11.820312 -18.566406 -11.09375 -19.234375 C -10.363281 -19.910156 -9.257812 -20.25 -7.78125 -20.25 L 0 -20.25 Z M 0 -16.125 "/></g></g></g><g fill="rgb(11.369324%, 17.649841%, 60.778809%)" fill-opacity="1"><g transform="translate(36.6996, 21.725813)"><g><path d="M 6.625 -0.015625 L 4.96875 -0.015625 L 2.375 -12.421875 L 2.375 0 L 0.875 0 L 0.875 -15.578125 L 3.296875 -15.578125 L 5.859375 -3.140625 L 8.328125 -15.578125 L 10.75 -15.578125 L 10.75 0 L 9.09375 0 L 9.09375 -12.53125 Z M 6.625 -0.015625 "/></g></g></g><g fill="rgb(11.369324%, 17.649841%, 60.778809%)" fill-opacity="1"><g transform="translate(48.336646, 21.725813)"><g><path d="M 6.4375 -8.671875 L 6.4375 -7.125 L 2.625 -7.125 L 2.625 -1.578125 L 7.296875 -1.578125 L 7.296875 0 L 0.890625 0 L 0.890625 -15.578125 L 7.296875 -15.578125 L 7.296875 -14 L 2.625 -14 L 2.625 -8.671875 Z M 6.4375 -8.671875 "/></g></g></g><g fill="rgb(11.369324%, 17.649841%, 60.778809%)" fill-opacity="1"><g transform="translate(56.346853, 21.725813)"><g><path d="M 2.421875 0 L 0.875 0 L 0.875 -15.578125 L 3.078125 -15.578125 L 6.671875 -4.3125 L 6.671875 -15.578125 L 8.203125 -15.578125 L 8.203125 0 L 6.40625 0 L 2.421875 -12.59375 Z M 2.421875 0 "/></g></g></g><g fill="rgb(11.369324%, 17.649841%, 60.778809%)" fill-opacity="1"><g transform="translate(65.447332, 21.725813)"><g><path d="M 4.53125 -15.578125 C 5.75 -15.578125 6.644531 -15.226562 7.21875 -14.53125 C 7.789062 -13.84375 8.078125 -12.898438 8.078125 -11.703125 L 8.078125 -3.84375 C 8.078125 -2.644531 7.789062 -1.703125 7.21875 -1.015625 C 6.644531 -0.335938 5.75 0 4.53125 0 L 0.890625 0 L 0.890625 -15.578125 Z M 4.515625 -1.578125 C 5.140625 -1.578125 5.601562 -1.765625 5.90625 -2.140625 C 6.207031 -2.523438 6.359375 -3.070312 6.359375 -3.78125 L 6.359375 -11.796875 C 6.359375 -12.503906 6.207031 -13.046875 5.90625 -13.421875 C 5.601562 -13.804688 5.132812 -14 4.5 -14 L 2.625 -14 L 2.625 -1.578125 Z M 4.515625 -1.578125 "/></g></g></g><g fill="rgb(11.369324%, 17.649841%, 60.778809%)" fill-opacity="1"><g transform="translate(74.258555, 21.725813)"><g><path d="M 6.4375 -8.671875 L 6.4375 -7.125 L 2.625 -7.125 L 2.625 -1.578125 L 7.296875 -1.578125 L 7.296875 0 L 0.890625 0 L 0.890625 -15.578125 L 7.296875 -15.578125 L 7.296875 -14 L 2.625 -14 L 2.625 -8.671875 Z M 6.4375 -8.671875 "/></g></g></g><g fill="rgb(11.369324%, 17.649841%, 60.778809%)" fill-opacity="1"><g transform="translate(82.268762, 21.725813)"><g><path d="M 4.15625 -15.734375 C 5.34375 -15.734375 6.21875 -15.378906 6.78125 -14.671875 C 7.34375 -13.960938 7.625 -13.019531 7.625 -11.84375 L 7.625 -11.421875 L 5.984375 -11.421875 L 5.984375 -11.921875 C 5.984375 -12.640625 5.84375 -13.191406 5.5625 -13.578125 C 5.28125 -13.960938 4.828125 -14.15625 4.203125 -14.15625 C 3.578125 -14.15625 3.125 -13.960938 2.84375 -13.578125 C 2.5625 -13.191406 2.421875 -12.648438 2.421875 -11.953125 C 2.421875 -11.367188 2.550781 -10.863281 2.8125 -10.4375 C 3.070312 -10.007812 3.394531 -9.613281 3.78125 -9.25 C 4.164062 -8.882812 4.582031 -8.523438 5.03125 -8.171875 C 5.488281 -7.828125 5.910156 -7.445312 6.296875 -7.03125 C 6.679688 -6.613281 7.003906 -6.140625 7.265625 -5.609375 C 7.523438 -5.085938 7.65625 -4.460938 7.65625 -3.734375 C 7.65625 -2.546875 7.367188 -1.597656 6.796875 -0.890625 C 6.222656 -0.191406 5.335938 0.15625 4.140625 0.15625 C 2.941406 0.15625 2.054688 -0.191406 1.484375 -0.890625 C 0.921875 -1.597656 0.640625 -2.546875 0.640625 -3.734375 L 0.640625 -4.625 L 2.265625 -4.625 L 2.265625 -3.65625 C 2.265625 -2.9375 2.410156 -2.382812 2.703125 -2 C 3.003906 -1.613281 3.46875 -1.421875 4.09375 -1.421875 C 4.71875 -1.421875 5.175781 -1.613281 5.46875 -2 C 5.769531 -2.382812 5.921875 -2.9375 5.921875 -3.65625 C 5.921875 -4.226562 5.789062 -4.722656 5.53125 -5.140625 C 5.269531 -5.566406 4.945312 -5.960938 4.5625 -6.328125 C 4.175781 -6.691406 3.757812 -7.046875 3.3125 -7.390625 C 2.863281 -7.742188 2.445312 -8.128906 2.0625 -8.546875 C 1.675781 -8.960938 1.351562 -9.429688 1.09375 -9.953125 C 0.84375 -10.484375 0.71875 -11.113281 0.71875 -11.84375 C 0.71875 -13.039062 1 -13.988281 1.5625 -14.6875 C 2.125 -15.382812 2.988281 -15.734375 4.15625 -15.734375 Z M 4.15625 -15.734375 "/></g></g></g><g fill="rgb(11.369324%, 17.649841%, 60.778809%)" fill-opacity="1"><g transform="translate(93.371383, 21.725813)"><g><path d="M 6.625 -0.015625 L 4.96875 -0.015625 L 2.375 -12.421875 L 2.375 0 L 0.875 0 L 0.875 -15.578125 L 3.296875 -15.578125 L 5.859375 -3.140625 L 8.328125 -15.578125 L 10.75 -15.578125 L 10.75 0 L 9.09375 0 L 9.09375 -12.53125 Z M 6.625 -0.015625 "/></g></g></g><g fill="rgb(11.369324%, 17.649841%, 60.778809%)" fill-opacity="1"><g transform="translate(105.008429, 21.725813)"><g><path d="M 6.4375 -8.671875 L 6.4375 -7.125 L 2.625 -7.125 L 2.625 -1.578125 L 7.296875 -1.578125 L 7.296875 0 L 0.890625 0 L 0.890625 -15.578125 L 7.296875 -15.578125 L 7.296875 -14 L 2.625 -14 L 2.625 -8.671875 Z M 6.4375 -8.671875 "/></g></g></g><g fill="rgb(11.369324%, 17.649841%, 60.778809%)" fill-opacity="1"><g transform="translate(113.018636, 21.725813)"><g><path d="M 4.53125 -15.578125 C 5.75 -15.578125 6.644531 -15.226562 7.21875 -14.53125 C 7.789062 -13.84375 8.078125 -12.898438 8.078125 -11.703125 L 8.078125 -3.84375 C 8.078125 -2.644531 7.789062 -1.703125 7.21875 -1.015625 C 6.644531 -0.335938 5.75 0 4.53125 0 L 0.890625 0 L 0.890625 -15.578125 Z M 4.515625 -1.578125 C 5.140625 -1.578125 5.601562 -1.765625 5.90625 -2.140625 C 6.207031 -2.523438 6.359375 -3.070312 6.359375 -3.78125 L 6.359375 -11.796875 C 6.359375 -12.503906 6.207031 -13.046875 5.90625 -13.421875 C 5.601562 -13.804688 5.132812 -14 4.5 -14 L 2.625 -14 L 2.625 -1.578125 Z M 4.515625 -1.578125 "/></g></g></g><g fill="rgb(11.369324%, 17.649841%, 60.778809%)" fill-opacity="1"><g transform="translate(121.82986, 21.725813)"><g><path d="M 2.625 -15.578125 L 2.625 0 L 0.890625 0 L 0.890625 -15.578125 Z M 2.625 -15.578125 "/></g></g></g><g fill="rgb(11.369324%, 17.649841%, 60.778809%)" fill-opacity="1"><g transform="translate(125.345452, 21.725813)"><g><path d="M 4.25 -15.734375 C 5.445312 -15.734375 6.332031 -15.375 6.90625 -14.65625 C 7.476562 -13.945312 7.765625 -13 7.765625 -11.8125 L 7.765625 -10.40625 L 6.125 -10.40625 L 6.125 -11.90625 C 6.125 -12.613281 5.976562 -13.164062 5.6875 -13.5625 C 5.394531 -13.957031 4.929688 -14.15625 4.296875 -14.15625 C 3.671875 -14.15625 3.207031 -13.957031 2.90625 -13.5625 C 2.613281 -13.164062 2.46875 -12.613281 2.46875 -11.90625 L 2.46875 -3.671875 C 2.46875 -2.960938 2.613281 -2.410156 2.90625 -2.015625 C 3.207031 -1.617188 3.671875 -1.421875 4.296875 -1.421875 C 4.929688 -1.421875 5.394531 -1.617188 5.6875 -2.015625 C 5.976562 -2.410156 6.125 -2.960938 6.125 -3.671875 L 6.125 -5.703125 L 7.765625 -5.703125 L 7.765625 -3.765625 C 7.765625 -2.578125 7.476562 -1.625 6.90625 -0.90625 C 6.332031 -0.195312 5.445312 0.15625 4.25 0.15625 C 3.0625 0.15625 2.179688 -0.195312 1.609375 -0.90625 C 1.035156 -1.625 0.75 -2.578125 0.75 -3.765625 L 0.75 -11.8125 C 0.75 -12.40625 0.816406 -12.941406 0.953125 -13.421875 C 1.097656 -13.910156 1.316406 -14.320312 1.609375 -14.65625 C 1.898438 -15 2.265625 -15.265625 2.703125 -15.453125 C 3.140625 -15.640625 3.65625 -15.734375 4.25 -15.734375 Z M 4.25 -15.734375 "/></g></g></g><g fill="rgb(11.369324%, 17.649841%, 60.778809%)" fill-opacity="1"><g transform="translate(133.800671, 21.725813)"><g><path d="M 2.640625 -3.140625 L 2.046875 0 L 0.4375 0 L 3.421875 -15.578125 L 5.9375 -15.578125 L 8.921875 0 L 7.1875 0 L 6.59375 -3.140625 Z M 2.875 -4.625 L 6.34375 -4.625 L 4.578125 -13.609375 Z M 2.875 -4.625 "/></g></g></g><g fill="rgb(11.369324%, 17.649841%, 60.778809%)" fill-opacity="1"><g transform="translate(143.190416, 21.725813)"><g><path d="M 0.890625 0 L 0.890625 -15.578125 L 2.625 -15.578125 L 2.625 -1.578125 L 7.078125 -1.578125 L 7.078125 0 Z M 0.890625 0 "/></g></g></g></svg>