<svg xmlns="http://www.w3.org/2000/svg" xmlns:xlink="http://www.w3.org/1999/xlink" width="300" zoomAndPan="magnify" viewBox="0 0 224.87999 30.000001" height="40" preserveAspectRatio="xMidYMid meet" version="1.0"><defs><g><g id="id1"/></g></defs><g fill="rgb(11.369324%, 17.649841%, 60.778809%)" fill-opacity="1"><g transform="translate(10.914212, 21.774195)"><g><path d="M 7.953125 -4.15625 C 7.953125 -4.789062 7.785156 -5.273438 7.453125 -5.609375 C 7.128906 -5.941406 6.53125 -6.285156 5.65625 -6.640625 C 4.070312 -7.242188 2.929688 -7.945312 2.234375 -8.75 C 1.535156 -9.5625 1.1875 -10.515625 1.1875 -11.609375 C 1.1875 -12.941406 1.660156 -14.007812 2.609375 -14.8125 C 3.554688 -15.625 4.757812 -16.03125 6.21875 -16.03125 C 7.1875 -16.03125 8.050781 -15.828125 8.8125 -15.421875 C 9.570312 -15.015625 10.15625 -14.4375 10.5625 -13.6875 C 10.96875 -12.9375 11.171875 -12.085938 11.171875 -11.140625 L 8 -11.140625 C 8 -11.878906 7.835938 -12.441406 7.515625 -12.828125 C 7.203125 -13.222656 6.75 -13.421875 6.15625 -13.421875 C 5.601562 -13.421875 5.171875 -13.253906 4.859375 -12.921875 C 4.546875 -12.585938 4.390625 -12.144531 4.390625 -11.59375 C 4.390625 -11.15625 4.5625 -10.757812 4.90625 -10.40625 C 5.257812 -10.0625 5.875 -9.703125 6.75 -9.328125 C 8.300781 -8.765625 9.425781 -8.078125 10.125 -7.265625 C 10.820312 -6.453125 11.171875 -5.421875 11.171875 -4.171875 C 11.171875 -2.796875 10.734375 -1.71875 9.859375 -0.9375 C 8.984375 -0.164062 7.789062 0.21875 6.28125 0.21875 C 5.257812 0.21875 4.328125 0.0078125 3.484375 -0.40625 C 2.648438 -0.832031 1.992188 -1.4375 1.515625 -2.21875 C 1.035156 -3 0.796875 -3.921875 0.796875 -4.984375 L 4.015625 -4.984375 C 4.015625 -4.078125 4.191406 -3.414062 4.546875 -3 C 4.898438 -2.582031 5.476562 -2.375 6.28125 -2.375 C 7.394531 -2.375 7.953125 -2.96875 7.953125 -4.15625 Z M 7.953125 -4.15625 "/></g></g></g><g fill="rgb(11.369324%, 17.649841%, 60.778809%)" fill-opacity="1"><g transform="translate(22.930353, 21.774195)"><g><path d="M 6.703125 0 C 6.617188 -0.175781 6.53125 -0.476562 6.4375 -0.90625 C 5.882812 -0.15625 5.140625 0.21875 4.203125 0.21875 C 3.222656 0.21875 2.40625 -0.101562 1.75 -0.75 C 1.101562 -1.40625 0.78125 -2.253906 0.78125 -3.296875 C 0.78125 -4.523438 1.171875 -5.472656 1.953125 -6.140625 C 2.742188 -6.816406 3.878906 -7.164062 5.359375 -7.1875 L 6.296875 -7.1875 L 6.296875 -8.125 C 6.296875 -8.65625 6.203125 -9.03125 6.015625 -9.25 C 5.835938 -9.46875 5.570312 -9.578125 5.21875 -9.578125 C 4.457031 -9.578125 4.078125 -9.125 4.078125 -8.21875 L 1 -8.21875 C 1 -9.3125 1.40625 -10.207031 2.21875 -10.90625 C 3.03125 -11.613281 4.0625 -11.96875 5.3125 -11.96875 C 6.601562 -11.96875 7.597656 -11.632812 8.296875 -10.96875 C 9.003906 -10.300781 9.359375 -9.34375 9.359375 -8.09375 L 9.359375 -2.5625 C 9.378906 -1.550781 9.523438 -0.757812 9.796875 -0.1875 L 9.796875 0 Z M 4.890625 -2.1875 C 5.234375 -2.1875 5.519531 -2.253906 5.75 -2.390625 C 5.988281 -2.535156 6.171875 -2.703125 6.296875 -2.890625 L 6.296875 -5.328125 L 5.546875 -5.328125 C 5.023438 -5.328125 4.613281 -5.160156 4.3125 -4.828125 C 4.019531 -4.492188 3.875 -4.050781 3.875 -3.5 C 3.875 -2.625 4.210938 -2.1875 4.890625 -2.1875 Z M 4.890625 -2.1875 "/></g></g></g><g fill="rgb(11.369324%, 17.649841%, 60.778809%)" fill-opacity="1"><g transform="translate(33.403735, 21.774195)"><g><path d="M 6.90625 -1.078125 C 6.257812 -0.210938 5.398438 0.21875 4.328125 0.21875 C 3.253906 0.21875 2.4375 -0.148438 1.875 -0.890625 C 1.320312 -1.640625 1.046875 -2.722656 1.046875 -4.140625 L 1.046875 -11.75 L 4.125 -11.75 L 4.125 -4.0625 C 4.132812 -2.914062 4.515625 -2.34375 5.265625 -2.34375 C 5.960938 -2.34375 6.46875 -2.648438 6.78125 -3.265625 L 6.78125 -11.75 L 9.875 -11.75 L 9.875 0 L 6.984375 0 Z M 6.234375 -16.6875 L 9.6875 -16.6875 L 6.65625 -13.3125 L 4.09375 -13.3125 Z M 6.234375 -16.6875 "/></g></g></g><g fill="rgb(11.369324%, 17.649841%, 60.778809%)" fill-opacity="1"><g transform="translate(44.355155, 21.774195)"><g><path d="M 0.703125 -6.234375 C 0.703125 -8.160156 1.023438 -9.597656 1.671875 -10.546875 C 2.328125 -11.492188 3.28125 -11.96875 4.53125 -11.96875 C 5.4375 -11.96875 6.191406 -11.578125 6.796875 -10.796875 L 6.796875 -16.6875 L 9.890625 -16.6875 L 9.890625 0 L 7.09375 0 L 6.953125 -1.1875 C 6.328125 -0.25 5.515625 0.21875 4.515625 0.21875 C 3.285156 0.21875 2.347656 -0.25 1.703125 -1.1875 C 1.054688 -2.132812 0.722656 -3.519531 0.703125 -5.34375 Z M 3.796875 -5.46875 C 3.796875 -4.300781 3.914062 -3.488281 4.15625 -3.03125 C 4.40625 -2.570312 4.820312 -2.34375 5.40625 -2.34375 C 6.019531 -2.34375 6.484375 -2.613281 6.796875 -3.15625 L 6.796875 -8.53125 C 6.484375 -9.101562 6.023438 -9.390625 5.421875 -9.390625 C 4.859375 -9.390625 4.445312 -9.160156 4.1875 -8.703125 C 3.925781 -8.253906 3.796875 -7.445312 3.796875 -6.28125 Z M 3.796875 -5.46875 "/></g></g></g><g fill="rgb(11.369324%, 17.649841%, 60.778809%)" fill-opacity="1"><g transform="translate(55.382626, 21.774195)"><g><path d="M 5.859375 0.21875 C 4.285156 0.21875 3.054688 -0.25 2.171875 -1.1875 C 1.285156 -2.132812 0.84375 -3.484375 0.84375 -5.234375 L 0.84375 -6.171875 C 0.84375 -8.023438 1.25 -9.453125 2.0625 -10.453125 C 2.875 -11.460938 4.035156 -11.96875 5.546875 -11.96875 C 7.023438 -11.96875 8.132812 -11.492188 8.875 -10.546875 C 9.625 -9.609375 10.007812 -8.210938 10.03125 -6.359375 L 10.03125 -4.84375 L 3.90625 -4.84375 C 3.945312 -3.976562 4.140625 -3.34375 4.484375 -2.9375 C 4.828125 -2.53125 5.351562 -2.328125 6.0625 -2.328125 C 7.09375 -2.328125 7.953125 -2.679688 8.640625 -3.390625 L 9.84375 -1.53125 C 9.46875 -1.007812 8.921875 -0.585938 8.203125 -0.265625 C 7.484375 0.0546875 6.703125 0.21875 5.859375 0.21875 Z M 3.9375 -7 L 7 -7 L 7 -7.28125 C 6.988281 -7.976562 6.875 -8.507812 6.65625 -8.875 C 6.4375 -9.238281 6.054688 -9.421875 5.515625 -9.421875 C 4.984375 -9.421875 4.597656 -9.226562 4.359375 -8.84375 C 4.117188 -8.457031 3.976562 -7.84375 3.9375 -7 Z M 3.9375 -7 "/></g></g></g><g fill="rgb(11.369324%, 17.649841%, 60.778809%)" fill-opacity="1"><g transform="translate(66.02984, 21.774195)"><g/></g></g><g fill="rgb(11.369324%, 17.649841%, 60.778809%)" fill-opacity="1"><g transform="translate(71.157886, 21.774195)"><g><path d="M 5.359375 -2.328125 C 6.253906 -2.328125 6.707031 -2.910156 6.71875 -4.078125 L 9.609375 -4.078125 C 9.597656 -2.796875 9.203125 -1.757812 8.421875 -0.96875 C 7.648438 -0.175781 6.65625 0.21875 5.4375 0.21875 C 3.914062 0.21875 2.753906 -0.25 1.953125 -1.1875 C 1.160156 -2.132812 0.757812 -3.523438 0.75 -5.359375 L 0.75 -6.296875 C 0.75 -8.140625 1.140625 -9.546875 1.921875 -10.515625 C 2.710938 -11.484375 3.875 -11.96875 5.40625 -11.96875 C 6.707031 -11.96875 7.726562 -11.566406 8.46875 -10.765625 C 9.21875 -9.972656 9.597656 -8.835938 9.609375 -7.359375 L 6.71875 -7.359375 C 6.71875 -8.023438 6.609375 -8.535156 6.390625 -8.890625 C 6.179688 -9.242188 5.835938 -9.421875 5.359375 -9.421875 C 4.816406 -9.421875 4.429688 -9.226562 4.203125 -8.84375 C 3.972656 -8.46875 3.847656 -7.734375 3.828125 -6.640625 L 3.828125 -5.4375 C 3.828125 -4.488281 3.875 -3.820312 3.96875 -3.4375 C 4.070312 -3.0625 4.226562 -2.78125 4.4375 -2.59375 C 4.65625 -2.414062 4.960938 -2.328125 5.359375 -2.328125 Z M 5.359375 -2.328125 "/></g></g></g><g fill="rgb(11.369324%, 17.649841%, 60.778809%)" fill-opacity="1"><g transform="translate(81.392248, 21.774195)"><g><path d="M 0.765625 -6.265625 C 0.765625 -8.046875 1.179688 -9.441406 2.015625 -10.453125 C 2.859375 -11.460938 4.023438 -11.96875 5.515625 -11.96875 C 7.003906 -11.96875 8.171875 -11.460938 9.015625 -10.453125 C 9.859375 -9.441406 10.28125 -8.035156 10.28125 -6.234375 L 10.28125 -5.484375 C 10.28125 -3.691406 9.863281 -2.289062 9.03125 -1.28125 C 8.195312 -0.28125 7.03125 0.21875 5.53125 0.21875 C 4.019531 0.21875 2.847656 -0.285156 2.015625 -1.296875 C 1.179688 -2.304688 0.765625 -3.710938 0.765625 -5.515625 Z M 3.84375 -5.484375 C 3.84375 -3.378906 4.40625 -2.328125 5.53125 -2.328125 C 6.5625 -2.328125 7.117188 -3.207031 7.203125 -4.96875 L 7.21875 -6.265625 C 7.21875 -7.328125 7.066406 -8.117188 6.765625 -8.640625 C 6.472656 -9.160156 6.054688 -9.421875 5.515625 -9.421875 C 4.984375 -9.421875 4.570312 -9.160156 4.28125 -8.640625 C 3.988281 -8.117188 3.84375 -7.328125 3.84375 -6.265625 Z M 3.84375 -5.484375 "/></g></g></g><g fill="rgb(11.369324%, 17.649841%, 60.778809%)" fill-opacity="1"><g transform="translate(92.463178, 21.774195)"><g><path d="M 4.015625 -11.75 L 4.09375 -10.671875 C 4.78125 -11.535156 5.691406 -11.96875 6.828125 -11.96875 C 7.992188 -11.96875 8.820312 -11.441406 9.3125 -10.390625 C 9.988281 -11.441406 10.945312 -11.96875 12.1875 -11.96875 C 14.25 -11.96875 15.300781 -10.546875 15.34375 -7.703125 L 15.34375 0 L 12.28125 0 L 12.28125 -7.5 C 12.28125 -8.1875 12.1875 -8.671875 12 -8.953125 C 11.8125 -9.242188 11.488281 -9.390625 11.03125 -9.390625 C 10.46875 -9.390625 10.039062 -9.039062 9.75 -8.34375 L 9.78125 -7.96875 L 9.78125 0 L 6.703125 0 L 6.703125 -7.484375 C 6.703125 -8.160156 6.609375 -8.644531 6.421875 -8.9375 C 6.242188 -9.238281 5.925781 -9.390625 5.46875 -9.390625 C 4.9375 -9.390625 4.515625 -9.109375 4.203125 -8.546875 L 4.203125 0 L 1.125 0 L 1.125 -11.75 Z M 4.015625 -11.75 "/></g></g></g><g fill="rgb(11.369324%, 17.649841%, 60.778809%)" fill-opacity="1"><g transform="translate(108.966359, 21.774195)"><g/></g></g><g fill="rgb(11.369324%, 17.649841%, 60.778809%)" fill-opacity="1"><g transform="translate(114.094405, 21.774195)"><g><path d="M 5.859375 0.21875 C 4.285156 0.21875 3.054688 -0.25 2.171875 -1.1875 C 1.285156 -2.132812 0.84375 -3.484375 0.84375 -5.234375 L 0.84375 -6.171875 C 0.84375 -8.023438 1.25 -9.453125 2.0625 -10.453125 C 2.875 -11.460938 4.035156 -11.96875 5.546875 -11.96875 C 7.023438 -11.96875 8.132812 -11.492188 8.875 -10.546875 C 9.625 -9.609375 10.007812 -8.210938 10.03125 -6.359375 L 10.03125 -4.84375 L 3.90625 -4.84375 C 3.945312 -3.976562 4.140625 -3.34375 4.484375 -2.9375 C 4.828125 -2.53125 5.351562 -2.328125 6.0625 -2.328125 C 7.09375 -2.328125 7.953125 -2.679688 8.640625 -3.390625 L 9.84375 -1.53125 C 9.46875 -1.007812 8.921875 -0.585938 8.203125 -0.265625 C 7.484375 0.0546875 6.703125 0.21875 5.859375 0.21875 Z M 3.9375 -7 L 7 -7 L 7 -7.28125 C 6.988281 -7.976562 6.875 -8.507812 6.65625 -8.875 C 6.4375 -9.238281 6.054688 -9.421875 5.515625 -9.421875 C 4.984375 -9.421875 4.597656 -9.226562 4.359375 -8.84375 C 4.117188 -8.457031 3.976562 -7.84375 3.9375 -7 Z M 3.9375 -7 "/></g></g></g><g fill="rgb(11.369324%, 17.649841%, 60.778809%)" fill-opacity="1"><g transform="translate(124.741619, 21.774195)"><g><path d="M 5.046875 -8.265625 L 6.421875 -11.75 L 9.6875 -11.75 L 7 -6.015625 L 9.78125 0 L 6.5 0 L 5.0625 -3.6875 L 3.625 0 L 0.34375 0 L 3.125 -6.015625 L 0.46875 -11.75 L 3.734375 -11.75 Z M 5.046875 -8.265625 "/></g></g></g><g fill="rgb(11.369324%, 17.649841%, 60.778809%)" fill-opacity="1"><g transform="translate(134.813014, 21.774195)"><g><path d="M 5.359375 -2.328125 C 6.253906 -2.328125 6.707031 -2.910156 6.71875 -4.078125 L 9.609375 -4.078125 C 9.597656 -2.796875 9.203125 -1.757812 8.421875 -0.96875 C 7.648438 -0.175781 6.65625 0.21875 5.4375 0.21875 C 3.914062 0.21875 2.753906 -0.25 1.953125 -1.1875 C 1.160156 -2.132812 0.757812 -3.523438 0.75 -5.359375 L 0.75 -6.296875 C 0.75 -8.140625 1.140625 -9.546875 1.921875 -10.515625 C 2.710938 -11.484375 3.875 -11.96875 5.40625 -11.96875 C 6.707031 -11.96875 7.726562 -11.566406 8.46875 -10.765625 C 9.21875 -9.972656 9.597656 -8.835938 9.609375 -7.359375 L 6.71875 -7.359375 C 6.71875 -8.023438 6.609375 -8.535156 6.390625 -8.890625 C 6.179688 -9.242188 5.835938 -9.421875 5.359375 -9.421875 C 4.816406 -9.421875 4.429688 -9.226562 4.203125 -8.84375 C 3.972656 -8.46875 3.847656 -7.734375 3.828125 -6.640625 L 3.828125 -5.4375 C 3.828125 -4.488281 3.875 -3.820312 3.96875 -3.4375 C 4.070312 -3.0625 4.226562 -2.78125 4.4375 -2.59375 C 4.65625 -2.414062 4.960938 -2.328125 5.359375 -2.328125 Z M 5.359375 -2.328125 "/></g></g></g><g fill="rgb(11.369324%, 17.649841%, 60.778809%)" fill-opacity="1"><g transform="translate(145.047376, 21.774195)"><g><path d="M 5.859375 0.21875 C 4.285156 0.21875 3.054688 -0.25 2.171875 -1.1875 C 1.285156 -2.132812 0.84375 -3.484375 0.84375 -5.234375 L 0.84375 -6.171875 C 0.84375 -8.023438 1.25 -9.453125 2.0625 -10.453125 C 2.875 -11.460938 4.035156 -11.96875 5.546875 -11.96875 C 7.023438 -11.96875 8.132812 -11.492188 8.875 -10.546875 C 9.625 -9.609375 10.007812 -8.210938 10.03125 -6.359375 L 10.03125 -4.84375 L 3.90625 -4.84375 C 3.945312 -3.976562 4.140625 -3.34375 4.484375 -2.9375 C 4.828125 -2.53125 5.351562 -2.328125 6.0625 -2.328125 C 7.09375 -2.328125 7.953125 -2.679688 8.640625 -3.390625 L 9.84375 -1.53125 C 9.46875 -1.007812 8.921875 -0.585938 8.203125 -0.265625 C 7.484375 0.0546875 6.703125 0.21875 5.859375 0.21875 Z M 3.9375 -7 L 7 -7 L 7 -7.28125 C 6.988281 -7.976562 6.875 -8.507812 6.65625 -8.875 C 6.4375 -9.238281 6.054688 -9.421875 5.515625 -9.421875 C 4.984375 -9.421875 4.597656 -9.226562 4.359375 -8.84375 C 4.117188 -8.457031 3.976562 -7.84375 3.9375 -7 Z M 3.9375 -7 "/></g></g></g><g fill="rgb(11.369324%, 17.649841%, 60.778809%)" fill-opacity="1"><g transform="translate(155.69459, 21.774195)"><g><path d="M 4.34375 0 L 1.265625 0 L 1.265625 -16.6875 L 4.34375 -16.6875 Z M 4.34375 0 "/></g></g></g><g fill="rgb(11.369324%, 17.649841%, 60.778809%)" fill-opacity="1"><g transform="translate(161.300674, 21.774195)"><g><path d="M 5.859375 0.21875 C 4.285156 0.21875 3.054688 -0.25 2.171875 -1.1875 C 1.285156 -2.132812 0.84375 -3.484375 0.84375 -5.234375 L 0.84375 -6.171875 C 0.84375 -8.023438 1.25 -9.453125 2.0625 -10.453125 C 2.875 -11.460938 4.035156 -11.96875 5.546875 -11.96875 C 7.023438 -11.96875 8.132812 -11.492188 8.875 -10.546875 C 9.625 -9.609375 10.007812 -8.210938 10.03125 -6.359375 L 10.03125 -4.84375 L 3.90625 -4.84375 C 3.945312 -3.976562 4.140625 -3.34375 4.484375 -2.9375 C 4.828125 -2.53125 5.351562 -2.328125 6.0625 -2.328125 C 7.09375 -2.328125 7.953125 -2.679688 8.640625 -3.390625 L 9.84375 -1.53125 C 9.46875 -1.007812 8.921875 -0.585938 8.203125 -0.265625 C 7.484375 0.0546875 6.703125 0.21875 5.859375 0.21875 Z M 3.9375 -7 L 7 -7 L 7 -7.28125 C 6.988281 -7.976562 6.875 -8.507812 6.65625 -8.875 C 6.4375 -9.238281 6.054688 -9.421875 5.515625 -9.421875 C 4.984375 -9.421875 4.597656 -9.226562 4.359375 -8.84375 C 4.117188 -8.457031 3.976562 -7.84375 3.9375 -7 Z M 8.75 -13.640625 L 8.75 -13.515625 L 6.34375 -13.515625 L 4.984375 -15.078125 L 3.625 -13.515625 L 1.28125 -13.515625 L 1.28125 -13.6875 L 4.109375 -16.6875 L 5.859375 -16.6875 Z M 8.75 -13.640625 "/></g></g></g><g fill="rgb(11.369324%, 17.649841%, 60.778809%)" fill-opacity="1"><g transform="translate(171.947888, 21.774195)"><g><path d="M 3.9375 -11.75 L 4.015625 -10.59375 C 4.710938 -11.507812 5.625 -11.96875 6.75 -11.96875 C 8.769531 -11.96875 9.804688 -10.550781 9.859375 -7.71875 L 9.859375 0 L 6.78125 0 L 6.78125 -7.5 C 6.78125 -8.164062 6.679688 -8.644531 6.484375 -8.9375 C 6.285156 -9.238281 5.9375 -9.390625 5.4375 -9.390625 C 4.875 -9.390625 4.4375 -9.109375 4.125 -8.546875 L 4.125 0 L 1.046875 0 L 1.046875 -11.75 Z M 3.9375 -11.75 "/></g></g></g><g fill="rgb(11.369324%, 17.649841%, 60.778809%)" fill-opacity="1"><g transform="translate(182.899308, 21.774195)"><g><path d="M 5.359375 -2.328125 C 6.253906 -2.328125 6.707031 -2.910156 6.71875 -4.078125 L 9.609375 -4.078125 C 9.597656 -2.796875 9.203125 -1.757812 8.421875 -0.96875 C 7.648438 -0.175781 6.65625 0.21875 5.4375 0.21875 C 3.914062 0.21875 2.753906 -0.25 1.953125 -1.1875 C 1.160156 -2.132812 0.757812 -3.523438 0.75 -5.359375 L 0.75 -6.296875 C 0.75 -8.140625 1.140625 -9.546875 1.921875 -10.515625 C 2.710938 -11.484375 3.875 -11.96875 5.40625 -11.96875 C 6.707031 -11.96875 7.726562 -11.566406 8.46875 -10.765625 C 9.21875 -9.972656 9.597656 -8.835938 9.609375 -7.359375 L 6.71875 -7.359375 C 6.71875 -8.023438 6.609375 -8.535156 6.390625 -8.890625 C 6.179688 -9.242188 5.835938 -9.421875 5.359375 -9.421875 C 4.816406 -9.421875 4.429688 -9.226562 4.203125 -8.84375 C 3.972656 -8.46875 3.847656 -7.734375 3.828125 -6.640625 L 3.828125 -5.4375 C 3.828125 -4.488281 3.875 -3.820312 3.96875 -3.4375 C 4.070312 -3.0625 4.226562 -2.78125 4.4375 -2.59375 C 4.65625 -2.414062 4.960938 -2.328125 5.359375 -2.328125 Z M 5.359375 -2.328125 "/></g></g></g><g fill="rgb(11.369324%, 17.649841%, 60.778809%)" fill-opacity="1"><g transform="translate(193.13367, 21.774195)"><g><path d="M 4.34375 0 L 1.265625 0 L 1.265625 -11.75 L 4.34375 -11.75 Z M 1.125 -14.796875 C 1.125 -15.273438 1.273438 -15.664062 1.578125 -15.96875 C 1.878906 -16.269531 2.28125 -16.421875 2.78125 -16.421875 C 3.289062 -16.421875 3.695312 -16.269531 4 -15.96875 C 4.3125 -15.664062 4.46875 -15.273438 4.46875 -14.796875 C 4.46875 -14.328125 4.316406 -13.9375 4.015625 -13.625 C 3.710938 -13.3125 3.300781 -13.15625 2.78125 -13.15625 C 2.269531 -13.15625 1.863281 -13.3125 1.5625 -13.625 C 1.269531 -13.9375 1.125 -14.328125 1.125 -14.796875 Z M 1.125 -14.796875 "/></g></g></g><g fill="rgb(11.369324%, 17.649841%, 60.778809%)" fill-opacity="1"><g transform="translate(198.739754, 21.774195)"><g><path d="M 6.703125 0 C 6.617188 -0.175781 6.53125 -0.476562 6.4375 -0.90625 C 5.882812 -0.15625 5.140625 0.21875 4.203125 0.21875 C 3.222656 0.21875 2.40625 -0.101562 1.75 -0.75 C 1.101562 -1.40625 0.78125 -2.253906 0.78125 -3.296875 C 0.78125 -4.523438 1.171875 -5.472656 1.953125 -6.140625 C 2.742188 -6.816406 3.878906 -7.164062 5.359375 -7.1875 L 6.296875 -7.1875 L 6.296875 -8.125 C 6.296875 -8.65625 6.203125 -9.03125 6.015625 -9.25 C 5.835938 -9.46875 5.570312 -9.578125 5.21875 -9.578125 C 4.457031 -9.578125 4.078125 -9.125 4.078125 -8.21875 L 1 -8.21875 C 1 -9.3125 1.40625 -10.207031 2.21875 -10.90625 C 3.03125 -11.613281 4.0625 -11.96875 5.3125 -11.96875 C 6.601562 -11.96875 7.597656 -11.632812 8.296875 -10.96875 C 9.003906 -10.300781 9.359375 -9.34375 9.359375 -8.09375 L 9.359375 -2.5625 C 9.378906 -1.550781 9.523438 -0.757812 9.796875 -0.1875 L 9.796875 0 Z M 4.890625 -2.1875 C 5.234375 -2.1875 5.519531 -2.253906 5.75 -2.390625 C 5.988281 -2.535156 6.171875 -2.703125 6.296875 -2.890625 L 6.296875 -5.328125 L 5.546875 -5.328125 C 5.023438 -5.328125 4.613281 -5.160156 4.3125 -4.828125 C 4.019531 -4.492188 3.875 -4.050781 3.875 -3.5 C 3.875 -2.625 4.210938 -2.1875 4.890625 -2.1875 Z M 4.890625 -2.1875 "/></g></g></g><g fill="rgb(11.369324%, 17.649841%, 60.778809%)" fill-opacity="1"><g transform="translate(209.206805, 21.774195)"><g/></g></g></svg>